
<svg version="1.1" id="Layer_1" xmlns="http://www.w3.org/2000/svg" xmlns:xlink="http://www.w3.org/1999/xlink" x="0px" y="0px"
	 viewBox="0 0 174.9 174.9">
<style type="text/css">
	svg{
		fill: #fff;
	}
</style>
<path class="st0" d="M97.3,14.7c-3.3,0-6.4,1.1-8.8,3c-2.4-1.9-5.5-3-8.8-3c-7.9,0-14.2,6.4-14.2,14.2c0,7.9,15.2,24,23,24
	s23-16.1,23-24C111.6,21.1,105.2,14.7,97.3,14.7z"/>
<path class="" d="M112.4,35.6c1.1-2.2,1.9-4.5,1.9-6.6c0-9.3-7.6-16.9-16.9-16.9c-3.1,0-6.1,0.8-8.8,2.5c-2.6-1.6-5.6-2.5-8.8-2.5
	c-9.3,0-16.9,7.6-16.9,16.9c0,2.1,0.8,4.4,1.9,6.6c-25,9.6-42.9,33.9-42.9,62.3c0,36.8,29.9,66.7,66.7,66.7s66.7-29.9,66.7-66.7
	C155.3,69.5,137.5,45.2,112.4,35.6z M68.2,29c0-6.4,5.2-11.5,11.5-11.5c2.6,0,5.1,0.8,7.1,2.5l1.7,1.3l1.7-1.3
	c2-1.6,4.5-2.5,7.1-2.5c6.4,0,11.5,5.2,11.5,11.5c0,1.2-0.6,2.9-1.6,4.8c-5.1-1.5-10.5-2.4-16-2.6c-0.9,0-1.8-0.1-2.7-0.1
	c-1.5,0-2.7,1.2-2.7,2.7v2.8v13c-2.8-1.2-6.4-4-9.8-7.5c-1.1-1.2-2.1-2.3-3-3.5c-1.3-1.6-2.3-3.2-3.1-4.7
	C68.8,31.9,68.2,30.2,68.2,29z M104.1,38.5c-0.9,1.2-1.9,2.4-3,3.5c-3.4,3.5-7,6.3-9.8,7.5V37.9c0-0.7,0.6-1.3,1.3-1.2l0.1,0
	C96.6,36.9,100.4,37.6,104.1,38.5z M88.6,159.2c-33.8,0-61.3-27.5-61.3-61.3c0-26.4,16.8-49,40.3-57.6c1.8,2.5,3.6,4.5,4.6,5.5
	c2.6,2.7,5.4,5.1,8,6.8c2,1.3,3.9,2.2,5.7,2.7v23.4h-1.6c-1.5,0-2.7,1.2-2.7,2.7c0,1.5,1.2,2.7,2.7,2.7h8.6c1.5,0,2.7-1.2,2.7-2.7
	c0-1.5-1.2-2.7-2.7-2.7h-1.6V55.3c1.7-0.5,3.6-1.4,5.7-2.7c2.6-1.7,5.4-4.1,8-6.8c0.9-1,2.8-3,4.6-5.5c23.5,8.6,40.3,31.2,40.3,57.6
	C149.9,131.7,122.4,159.2,88.6,159.2z"/>
<g>
	<ellipse transform="matrix(0.913 -0.408 0.408 0.913 -33.4359 49.7126)" cx="99.8" cy="103.2" rx="5.8" ry="10.3"/>
	<ellipse transform="matrix(0.408 -0.913 0.913 0.408 -48.3781 131.8593)" cx="77.5" cy="103.2" rx="10.3" ry="5.8"/>
	<path d="M122.5,112.9c1.9-4.9,2.9-9.7,2.9-14.3c0-18.2-16.9-34.3-36.6-35.4c-0.2,0-0.4,0-0.6,0c-19.7,1.1-36.6,17.2-36.6,35.4
		c0,4.6,1,9.5,2.9,14.3c0,0.4,0,0.9,0,1.3c-0.9,1.7-1.3,3.6-1.3,5.5v0c0,8.1,6.6,14.6,14.6,14.6h2.8h0c0.3,0.3,0.7,0.5,1.1,0.8
		c1.1,0.8,2.3,1.9,3.4,3.4c2,2.6,4.9,4,7.9,4h5.5H94c3,0,5.9-1.5,7.9-4c0,0,0.1-0.1,0.1-0.1c1.6-2.1,4-3.4,6.6-3.8l1.6-0.2
		c0.4-0.1,0.8-0.1,1.2-0.1c6.9-0.3,12.4-6,12.4-13v-1.6c0-2-0.5-3.8-1.3-5.5C122.5,113.8,122.5,113.3,122.5,112.9z M115.4,115.8
		c1,1,1.7,2.4,1.7,4v0c0,4.3-3.5,7.8-7.8,7.8h-1.4c-2.3,0-4.5,0.7-6.3,2c-1.9,1.3-3.5,3-4.9,4.8c-0.7,0.9-1,1.4-2,1.4h-6h-6
		c-1,0-1.3-0.5-2-1.4c-1.4-1.8-3-3.5-4.9-4.8c-1.8-1.3-4-2-6.3-2h-1.4c-4.3,0-7.8-3.5-7.8-7.8v0c0-1.5,0.6-2.9,1.7-4
		c0.7-0.7,0.9-1.7,0.4-2.6c-2.3-4.8-3.7-9.9-3.7-14.6c0-15.4,14.7-27.9,30-28.6c0,0,0,0,0,0h0h0c0,0,0,0,0,0
		c15.3,0.7,30,13.3,30,28.6c0,4.7-1.3,9.8-3.7,14.6C114.5,114,114.7,115.1,115.4,115.8z"/>
	<g>
		<g>
			<g>
				<path d="M90.1,112.1c0.5,0.3,1,0.7,1.5,1.3c0.4,0.4,1.7,1.9,1.7,3.1c0,1.7-1.4,3.1-3.1,3.1c-0.6,0-1.1-0.2-1.6-0.5
					c-0.5,0.3-1,0.5-1.6,0.5c-1.7,0-3.1-1.4-3.1-3.1c0-1.2,1.3-2.7,1.7-3.1c0.5-0.5,1-0.9,1.5-1.3c0.6-0.4,1.1-0.6,1.5-0.6
					C89,111.6,89.5,111.8,90.1,112.1z M88.2,118.2l0.3-0.2l0.3,0.2c0.4,0.3,0.8,0.5,1.3,0.5c1.2,0,2.1-1,2.1-2.1
					c0-0.5-0.6-1.5-1.4-2.4c-0.8-0.9-1.8-1.5-2.3-1.5c-0.5,0-1.5,0.6-2.3,1.5c-0.8,0.9-1.4,1.9-1.4,2.4c0,1.2,1,2.1,2.1,2.1
					C87.4,118.6,87.9,118.5,88.2,118.2z"/>
			</g>
		</g>
		<path d="M88.6,112.1c0,0-4.1,1.9-4.1,4.5c0,2.6,2.6,2.6,2.6,2.6l1.6-0.6l1.9,0.6c0,0,2.5-0.6,2.4-2.7
			C92.8,114.4,88.6,112.1,88.6,112.1z"/>
	</g>
</g>
</svg>
